HIERARCHY
ROOT Hips
{
	OFFSET	0.00	0.00	0.00
	CHANNELS 6 Xposition Yposition Zposition Zrotation Xrotation Yrotation
	JOINT LeftUpLeg
	{
		OFFSET	 0.126116	-0.065224	 0.014019
		CHANNELS 3 Zrotation Xrotation Yrotation
		JOINT LeftLeg
		{
			OFFSET	 0.000000	 0.569914	 0.000000
			CHANNELS 3 Zrotation Xrotation Yrotation
			JOINT LeftFoot
			{
				OFFSET	 0.000000	 0.544423	 0.000000
				CHANNELS 3 Zrotation Xrotation Yrotation
				JOINT LeftToeBase
				{
					OFFSET	 0.000000	 0.207117	 0.000000
					CHANNELS 3 Zrotation Xrotation Yrotation
					End Site
					{
						OFFSET	 0.000000	 0.207117	 0.000000
					}
				}
			}
		}
	}
	JOINT RightUpLeg
	{
		OFFSET	-0.124023	-0.065224	 0.008373
		CHANNELS 3 Zrotation Xrotation Yrotation
		JOINT RightLeg
		{
			OFFSET	 0.000000	 0.570047	 0.000000
			CHANNELS 3 Zrotation Xrotation Yrotation
			JOINT RightFoot
			{
				OFFSET	 0.000000	 0.544354	 0.000000
				CHANNELS 3 Zrotation Xrotation Yrotation
				JOINT RightToeBase
				{
					OFFSET	 0.000000	 0.207540	 0.000000
					CHANNELS 3 Zrotation Xrotation Yrotation
					End Site
					{
						OFFSET	 0.000000	 0.207540	 0.000000
					}
				}
			}
		}
	}
	JOINT Spine
	{
		OFFSET	 0.000184	 0.117403	 0.007763
		CHANNELS 3 Zrotation Xrotation Yrotation
		JOINT Spine1
		{
			OFFSET	 0.000000	 0.137269	 0.000000
			CHANNELS 3 Zrotation Xrotation Yrotation
			JOINT Spine2
			{
				OFFSET	 0.000000	 0.156879	 0.000000
				CHANNELS 3 Zrotation Xrotation Yrotation
				JOINT LeftShoulder
				{
					OFFSET	 0.080501	 0.160143	 0.002496
					CHANNELS 3 Zrotation Xrotation Yrotation
					JOINT LeftArm
					{
						OFFSET	 0.000000	 0.164363	 0.000000
						CHANNELS 3 Zrotation Xrotation Yrotation
						JOINT LeftForeArm
						{
							OFFSET	 0.000000	 0.364576	 0.000000
							CHANNELS 3 Zrotation Xrotation Yrotation
							JOINT LeftHand
							{
								OFFSET	 0.000000	 0.360812	 0.000000
								CHANNELS 3 Zrotation Xrotation Yrotation
								JOINT LeftHandIndex1
								{
									OFFSET	 0.000000	 0.086006	 0.000000
									CHANNELS 3 Zrotation Xrotation Yrotation
									JOINT LeftHandIndex2
									{
										OFFSET	 0.000000	 0.047237	 0.000000
										CHANNELS 3 Zrotation Xrotation Yrotation
										JOINT LeftHandIndex3
										{
											OFFSET	-0.004284	 0.038165	 0.000551
											CHANNELS 3 Zrotation Xrotation Yrotation
											End Site
											{
												OFFSET	-0.004284	 0.038165	 0.000551
											}
										}
									}
								}
							}
						}
					}
				}
				JOINT Neck
				{
					OFFSET	 0.000000	 0.176489	 0.000000
					CHANNELS 3 Zrotation Xrotation Yrotation
					JOINT Head
					{
						OFFSET	 0.000000	 0.077941	 0.001747
						CHANNELS 3 Zrotation Xrotation Yrotation
						End Site
						{
							OFFSET	 0.000000	 0.077941	 0.001747
						}
					}
				}
				JOINT RightShoulder
				{
					OFFSET	-0.080363	 0.159706	-0.000306
					CHANNELS 3 Zrotation Xrotation Yrotation
					JOINT RightArm
					{
						OFFSET	 0.000000	 0.164196	 0.000000
						CHANNELS 3 Zrotation Xrotation Yrotation
						JOINT RightForeArm
						{
							OFFSET	 0.000000	 0.365611	 0.000000
							CHANNELS 3 Zrotation Xrotation Yrotation
							JOINT RightHand
							{
								OFFSET	 0.000000	 0.360648	 0.000000
								CHANNELS 3 Zrotation Xrotation Yrotation
								JOINT RightHandIndex1
								{
									OFFSET	 0.000000	 0.069977	 0.000000
									CHANNELS 3 Zrotation Xrotation Yrotation
									JOINT RightHandIndex2
									{
										OFFSET	 0.000000	 0.052305	 0.000000
										CHANNELS 3 Zrotation Xrotation Yrotation
										JOINT RightHandIndex3
										{
											OFFSET	 0.009002	 0.042196	 0.000782
											CHANNELS 3 Zrotation Xrotation Yrotation
											End Site
											{
												OFFSET	 0.009002	 0.042196	 0.000782
											}
										}
									}
								}
							}
						}
					}
				}
			}
		}
	}
}
MOTION
Frames:    4
Frame Time: 0.03333334
-0.003889	 1.268707	-0.018128	 0.692311	 1.427822	 179.747500	-175.523800	 5.385294	-28.485530	 3.617246	-17.722400	 5.369634	 1.317964	 70.515310	-0.158682	 1.331492	 28.938720	-2.729976	 176.104800	 5.237703	 33.506650	-5.180767	-16.588810	-5.479574	 4.798551	 70.659290	-4.564041	-1.317494	 28.740250	 2.205266	-2.556869	 1.905941	 41.029290	-1.066476	 0.453023	 2.296377	-0.522226	 0.672499	-9.757170	-113.435200	 5.282265	 92.899190	 30.521840	 43.624480	 19.450950	 11.723310	-0.249816	 32.627160	 2.414821	 11.611700	 2.799834	-6.580301	 5.266122	 0.000000	 0.000000	 0.000000	 0.000000	 0.000000	 0.000000	 0.000000	 4.570627	-0.507917	 0.096290	 1.935406	 2.060207	 0.008498	 114.243200	-4.604042	-88.274020	-50.235660	 30.333930	 40.020180	-87.171520	-1.981818	-34.737740	-68.130340	-53.203820	-65.625630	-0.359295	 10.569580	 0.744434	 11.977610	 9.304683	-2.093342	-8.359013	 3.143900	 0.104689
-0.002143	 1.268984	-0.014429	 0.564650	 1.444597	 178.589200	-175.470200	 5.022580	-29.487990	 3.503138	-17.197430	 3.985734	-2.529517	 70.207480	 3.881327	 1.331492	 28.938720	-2.729976	 176.273500	 5.598446	 32.316640	-5.219539	-16.705810	-6.615510	 1.472001	 70.699360	-1.132238	-1.313226	 28.681510	 2.306339	-2.720344	 1.869055	 43.692390	-0.784043	 0.446600	 2.109462	-0.534412	 0.903011	-9.376880	-113.435100	 5.356916	 92.928370	 16.672160	 47.679780	 29.462740	 13.205230	-0.257646	 38.886630	 4.151906	 5.576032	 3.454423	-6.580301	 5.266122	 0.000000	 0.000000	 0.000000	 0.000000	 0.000000	 0.000000	 0.000000	 4.801471	-0.506916	 0.203784	 1.667296	 2.162584	 0.374925	 114.267300	-4.758034	-88.156520	-64.565290	-17.964040	 61.179280	-64.284240	-1.710491	-40.116450	-18.021750	-16.112260	-28.602290	-0.359452	 10.573840	 0.744472	 11.977660	 9.308887	-2.094244	-8.359051	 3.146033	 0.104532
 0.000873	 1.269039	-0.010943	 0.435717	 1.480496	 177.715900	-175.408300	 4.785826	-30.236430	 3.421422	-16.819650	 2.840699	-5.650890	 69.854210	 7.142016	 1.331492	 28.938720	-2.729976	 176.415700	 5.952394	 31.408340	-5.273948	-16.869610	-7.545770	-1.294909	 70.700200	 1.683929	-1.308923	 28.623870	 2.406596	-2.826443	 1.935028	 44.450540	-0.787552	 0.497991	 2.303735	-0.453898	 1.131501	-9.100595	-113.435200	 5.424261	 92.958010	 12.929790	 48.923340	 32.006320	 14.097900	-0.258716	 42.987870	 1.763628	 4.694266	 4.022966	-6.580301	 5.266122	 0.000000	 0.000000	 0.000000	 0.000000	 0.000000	 0.000000	 0.000000	 5.011069	-0.495176	 0.261246	 1.626494	 2.200825	 0.596828	 114.286300	-4.877292	-88.063480	-79.346240	-45.659640	 55.692860	-33.059430	-0.876335	-43.297660	-22.041350	 10.744480	-27.960120	-0.369750	 10.869370	 0.746397	 11.981610	 9.598108	-2.156457	-8.362163	 3.305435	 0.094307
 0.005402	 1.268945	-0.007866	 0.379765	 1.610273	 178.276200	-175.312200	 4.816284	-29.683720	 3.398445	-16.713130	 3.136186	-4.989173	 69.632220	 6.276398	 1.331492	 28.938720	-2.729976	 176.506700	 5.921525	 31.916290	-5.271468	-16.862150	-7.541172	-1.484411	 70.765370	 1.739195	-1.303946	 28.559220	 2.525682	-2.873973	 2.200527	 43.108360	-0.681072	 0.423178	 2.400053	-0.625148	 1.681138	-9.357121	-113.436900	 5.465005	 92.997120	 21.524570	 47.507270	 24.176840	 14.494690	-0.257039	 45.012640	-0.706113	 9.743490	 4.496900	-6.580301	 5.266122	 0.000000	 0.000000	 0.000000	 0.000000	 0.000000	 0.000000	 0.000000	 5.146936	-0.421303	 0.043228	 2.889638	 1.880413	 0.037542	 114.278900	-4.824238	-88.090480	-80.613320	-28.727000	 47.986030	-77.140620	-1.827216	-46.705180	 6.737102	 19.793180	-26.443570	-0.441586	 12.915370	 0.761214	 12.017880	 11.600140	-2.589361	-8.382972	 4.409703	 0.023774
